<?xml version="1.0" encoding="UTF-8" standalone="no"?>
<!-- Created with Inkscape (http://www.inkscape.org/) -->

<svg
   xmlns:dc="http://purl.org/dc/elements/1.1/"
   xmlns:cc="http://creativecommons.org/ns#"
   xmlns:rdf="http://www.w3.org/1999/02/22-rdf-syntax-ns#"
   xmlns:svg="http://www.w3.org/2000/svg"
   xmlns="http://www.w3.org/2000/svg"
   xmlns:sodipodi="http://sodipodi.sourceforge.net/DTD/sodipodi-0.dtd"
   xmlns:inkscape="http://www.inkscape.org/namespaces/inkscape"
   width="210mm"
   height="297mm"
   viewBox="0 0 210 297"
   version="1.1"
   id="svg8"
   inkscape:version="0.92.0 r15299"
   sodipodi:docname="LOGO.svg">
  <defs
     id="defs2" />
  <sodipodi:namedview
     id="base"
     pagecolor="#ffffff"
     bordercolor="#666666"
     borderopacity="1.0"
     inkscape:pageopacity="0.0"
     inkscape:pageshadow="2"
     inkscape:zoom="0.34"
     inkscape:cx="392.69109"
     inkscape:cy="559.9957"
     inkscape:document-units="mm"
     inkscape:current-layer="layer1"
     showgrid="false"
     showguides="false"
     inkscape:guide-bbox="true"
     inkscape:window-width="1366"
     inkscape:window-height="745"
     inkscape:window-x="-8"
     inkscape:window-y="-8"
     inkscape:window-maximized="1" />
  <metadata
     id="metadata5">
    <rdf:RDF>
      <cc:Work
         rdf:about="">
        <dc:format>image/svg+xml</dc:format>
        <dc:type
           rdf:resource="http://purl.org/dc/dcmitype/StillImage" />
        <dc:title></dc:title>
      </cc:Work>
    </rdf:RDF>
  </metadata>
  <g
     inkscape:label="Calque 1"
     inkscape:groupmode="layer"
     id="layer1">
    <path
       style="opacity:1;fill:#f2f2f2;fill-opacity:1;fill-rule:nonzero;stroke:none;stroke-width:3.45657778;stroke-linecap:round;stroke-linejoin:round;stroke-miterlimit:4;stroke-dasharray:none;stroke-opacity:1"
       d="M 71.912278,-6.1936274 A 66.901795,66.901795 0 0 0 5.289989,60.893749 66.901795,66.901795 0 0 0 72.284866,127.60906 66.901795,66.901795 0 0 0 139.09371,60.707715 l -10e-4,-0.372589 A 66.901795,66.901795 0 0 0 71.912278,-6.1936274 Z m 0.0553,13.1764569 A 53.672615,53.672615 0 0 1 125.86351,60.356314 l 10e-4,0.298691 A 53.672615,53.672615 0 0 1 72.266261,114.3277 53.672615,53.672615 0 0 1 18.519155,60.804349 53.672615,53.672615 0 0 1 71.967573,6.9828295 Z"
       id="path4485"
       inkscape:connector-curvature="0"
       inkscape:export-xdpi="299"
       inkscape:export-ydpi="299" />
    <rect
       style="opacity:1;fill:#f2f2f2;fill-opacity:1;fill-rule:nonzero;stroke:none;stroke-width:4.06091642;stroke-linecap:round;stroke-linejoin:round;stroke-miterlimit:4;stroke-dasharray:none;stroke-opacity:1"
       id="rect4487"
       width="20.410715"
       height="131.22443"
       x="61.986362"
       y="116.77205"
       inkscape:export-xdpi="299"
       inkscape:export-ydpi="299" />
    <rect
       style="opacity:1;fill:#f2f2f2;fill-opacity:1;fill-rule:nonzero;stroke:none;stroke-width:4.63814831;stroke-linecap:round;stroke-linejoin:round;stroke-miterlimit:4;stroke-dasharray:none;stroke-opacity:1"
       id="rect4489"
       width="34.773811"
       height="113.882"
       x="54.804817"
       y="134.11447"
       ry="6.4461508"
       inkscape:export-xdpi="299"
       inkscape:export-ydpi="299" />
    <path
       style="opacity:1;fill:#f2f2f2;fill-opacity:1;fill-rule:nonzero;stroke:none;stroke-width:4.76499987;stroke-linecap:round;stroke-linejoin:round;stroke-miterlimit:4;stroke-dasharray:none;stroke-opacity:1"
       id="path4491"
       sodipodi:type="arc"
       sodipodi:cx="71.813911"
       sodipodi:cy="248.0554"
       sodipodi:rx="10.583334"
       sodipodi:ry="10.583334"
       sodipodi:start="0"
       sodipodi:end="6.2776177"
       sodipodi:open="true"
       d="M 82.397245,248.0554 A 10.583334,10.583334 0 0 1 71.828642,258.63873 10.583334,10.583334 0 0 1 61.230618,248.08487 10.583334,10.583334 0 0 1 71.769719,237.47216 10.583334,10.583334 0 0 1 82.397081,247.99648"
       inkscape:export-xdpi="299"
       inkscape:export-ydpi="299" />
    <path
       style="opacity:1;fill:none;fill-opacity:1;fill-rule:nonzero;stroke:#f2f2f2;stroke-width:3.43400002;stroke-linecap:round;stroke-linejoin:round;stroke-miterlimit:4;stroke-dasharray:none;stroke-opacity:1"
       id="path4500"
       sodipodi:type="arc"
       sodipodi:cx="72.191635"
       sodipodi:cy="-60.707451"
       sodipodi:rx="50.258343"
       sodipodi:ry="50.258343"
       sodipodi:start="0"
       sodipodi:end="6.2776177"
       sodipodi:open="true"
       d="M 122.44998,-60.707451 A 50.258343,50.258343 0 0 1 72.26159,-10.449157 50.258343,50.258343 0 0 1 21.933487,-60.567542 50.258343,50.258343 0 0 1 71.981772,-110.96536 50.258343,50.258343 0 0 1 122.4492,-60.987268"
       transform="scale(1,-1)"
       inkscape:export-xdpi="299"
       inkscape:export-ydpi="299" />
    <path
       id="path4504"
       style="fill:none;stroke:#f2f2f2;stroke-width:3.28063703;stroke-linecap:butt;stroke-linejoin:miter;stroke-miterlimit:4;stroke-dasharray:none;stroke-opacity:1"
       d="M 115.8699,74.225199 H 28.885052 L 98.108598,23.154137 72.203091,110.79256 M 28.513549,74.225199 H 115.49839 L 46.274854,23.154137 72.180362,110.79256"
       inkscape:connector-curvature="0"
       inkscape:export-xdpi="299"
       inkscape:export-ydpi="299" />
  </g>
</svg>
